<?xml version="1.0" encoding="UTF-8"?>
<svg width="55px" height="54px" viewBox="0 0 55 54" version="1.1" xmlns="http://www.w3.org/2000/svg" xmlns:xlink="http://www.w3.org/1999/xlink">
    <!-- Generator: Sketch 52.2 (67145) - http://www.bohemiancoding.com/sketch -->
    <title>Group 2</title>
    <desc>Created with Sketch.</desc>
    <g id="iPhone-XS" stroke="none" stroke-width="1" fill="none" fill-rule="evenodd">
        <g id="Page-4" transform="translate(-24.000000, -54.000000)">
            <g id="Group-2" transform="translate(25.000000, 55.000000)">
                <ellipse id="Oval" stroke="#000000" stroke-width="2" cx="26.5" cy="26" rx="26.5" ry="26"></ellipse>
                <path d="M12.858394,23.8330413 L44.1225862,23.8330413 C45.2934606,23.8330413 46.2426418,24.7722075 46.2426418,25.9489247 C46.2426418,27.1174948 45.287442,28.0648081 44.1225862,28.0648081 L12.858394,28.0648081 L25.6108688,41.0661117 C26.4641787,41.9360715 26.460359,43.3504491 25.6110451,44.216335 L25.7657589,44.0586024 C24.9125465,44.9284629 23.5306224,44.929897 22.675827,44.0584227 L6.6881633,27.7588045 C6.20327854,27.2644586 5.99515805,26.594322 6.06166696,25.9489247 C5.99515805,25.3035275 6.20327854,24.6333908 6.6881633,24.1390449 L22.675827,7.83942675 C23.5306224,6.96795244 24.9125465,6.96938654 25.7657589,7.83924705 L25.6110451,7.68151441 C26.460359,8.54740028 26.4641787,9.96177793 25.6108688,10.8317377 L12.858394,23.8330413 Z" id="Back" fill="#000000"></path>
            </g>
        </g>
    </g>
</svg>