<?xml version="1.0" encoding="UTF-8"?>
<svg width="131px" height="57px" viewBox="0 0 131 57" version="1.1" xmlns="http://www.w3.org/2000/svg" xmlns:xlink="http://www.w3.org/1999/xlink">
    <!-- Generator: Sketch 52.5 (67469) - http://www.bohemiancoding.com/sketch -->
    <title>Log Out</title>
    <desc>Created with Sketch.</desc>
    <defs>
        <linearGradient x1="0%" y1="50%" x2="100%" y2="50%" id="linearGradient-1">
            <stop stop-color="#00EBCF" offset="0%"></stop>
            <stop stop-color="#9E8AF8" offset="100%"></stop>
        </linearGradient>
    </defs>
    <g id="iPhone-XS" stroke="none" stroke-width="1" fill="none" fill-rule="evenodd">
        <g id="Page-2" transform="translate(-2.000000, -195.000000)">
            <g id="Log-Out" transform="translate(2.000000, 195.000000)">
                <path d="M6.92674877,20.0102794 C16.0962275,8.95890725 35.1721622,1.60342576e-20 49.5242189,1.27281255e-20 L104.77754,-7.52316385e-37 C119.133995,-3.30714514e-21 130.7722,11.6352887 130.7722,25.9984002 L130.7722,30.8206365 C130.7722,45.1791564 119.129597,56.8190367 104.77754,56.8190367 L49.5242189,56.8190367 C35.1677644,56.8190367 15.9175779,48.0017786 6.64874228,37.0556545 C6.64874228,37.0556545 -0.515138734,29.2058138 0.0295586402,28.4095183 C0.574256014,27.6132228 6.92674877,20.0102794 6.92674877,20.0102794 Z" id="Rectangle-9" fill="url(#linearGradient-1)"></path>
                <path d="M44,21.74 C44,21.5933326 44.0533328,21.4666672 44.16,21.36 C44.2666672,21.2533328 44.3933326,21.2 44.54,21.2 L49.9,21.2 C50.9533386,21.2 51.8066634,21.4033313 52.46,21.81 C53.1133366,22.2166687 53.5799986,22.7066638 53.86,23.28 C54.1400014,23.8533362 54.28,24.4133306 54.28,24.96 C54.28,25.7066704 54.1000018,26.3099977 53.74,26.77 C53.3799982,27.2300023 53.0266684,27.5666656 52.68,27.78 C53.2400028,28.1533352 53.6966649,28.6299971 54.05,29.21 C54.4033351,29.7900029 54.58,30.4333298 54.58,31.14 C54.58,31.8333368 54.4100017,32.4899969 54.07,33.11 C53.7299983,33.7300031 53.22667,34.2333314 52.56,34.62 C51.89333,35.0066686 51.1000046,35.2 50.18,35.2 L44.54,35.2 C44.3933326,35.2 44.2666672,35.1466672 44.16,35.04 C44.0533328,34.9333328 44,34.8066674 44,34.66 L44,21.74 Z M45.9,27.04 L49.7,27.04 C50.5800044,27.04 51.2466644,26.8666684 51.7,26.52 C52.1533356,26.1733316 52.38,25.6733366 52.38,25.02 C52.38,24.3666634 52.1533356,23.8666684 51.7,23.52 C51.2466644,23.1733316 50.5800044,23 49.7,23 L45.9,23 L45.9,27.04 Z M45.9,33.4 L49.98,33.4 C50.8333376,33.4 51.4966643,33.1833355 51.97,32.75 C52.4433357,32.3166645 52.68,31.7800032 52.68,31.14 C52.68,30.4866634 52.4533356,29.9400022 52,29.5 C51.5466644,29.0599978 50.8733378,28.84 49.98,28.84 L45.9,28.84 L45.9,33.4 Z M63.3,28.62 L63.3,28.36 C63.3,27.7066634 63.0833355,27.2033351 62.65,26.85 C62.2166645,26.4966649 61.6533368,26.32 60.96,26.32 C60.426664,26.32 60.0100015,26.4099991 59.71,26.59 C59.4099985,26.7700009 59.126668,27.0399982 58.86,27.4 C58.7799996,27.5066672 58.6933338,27.5799998 58.6,27.62 C58.5066662,27.6600002 58.3800008,27.68 58.22,27.68 L57.62,27.68 C57.4733326,27.68 57.3433339,27.6266672 57.23,27.52 C57.1166661,27.4133328 57.0666666,27.2866674 57.08,27.14 C57.1200002,26.739998 57.3166649,26.3433353 57.67,25.95 C58.0233351,25.5566647 58.4933304,25.2333346 59.08,24.98 C59.6666696,24.7266654 60.29333,24.6 60.96,24.6 C62.2000062,24.6 63.2033295,24.9466632 63.97,25.64 C64.7366705,26.3333368 65.12,27.3066604 65.12,28.56 L65.12,34.66 C65.12,34.8066674 65.0666672,34.9333328 64.96,35.04 C64.8533328,35.1466672 64.7266674,35.2 64.58,35.2 L63.84,35.2 C63.6933326,35.2 63.5666672,35.1466672 63.46,35.04 C63.3533328,34.9333328 63.3,34.8066674 63.3,34.66 L63.3,33.84 C63.0866656,34.3200024 62.6333368,34.6999986 61.94,34.98 C61.2466632,35.2600014 60.5533368,35.4 59.86,35.4 C59.1799966,35.4 58.573336,35.2766679 58.04,35.03 C57.506664,34.7833321 57.0966681,34.4466688 56.81,34.02 C56.5233319,33.5933312 56.38,33.113336 56.38,32.58 C56.38,31.579995 56.7533296,30.7966695 57.5,30.23 C58.2466704,29.6633305 59.2399938,29.280001 60.48,29.08 L63.3,28.62 Z M63.3,30.22 L60.94,30.6 C60.073329,30.733334 59.4000024,30.9499985 58.92,31.25 C58.4399976,31.5500015 58.2,31.9266644 58.2,32.38 C58.2,32.713335 58.3533318,33.013332 58.66,33.28 C58.9666682,33.546668 59.4333302,33.68 60.06,33.68 C61.0200048,33.68 61.799997,33.4066694 62.4,32.86 C63.000003,32.3133306 63.3,31.6000044 63.3,30.72 L63.3,30.22 Z M72.24,33.68 C73.57334,33.68 74.473331,33.1600052 74.94,32.12 C75.0333338,31.919999 75.1266662,31.7800004 75.22,31.7 C75.3133338,31.6199996 75.4399992,31.58 75.6,31.58 L76.2,31.58 C76.3466674,31.58 76.4733328,31.6299995 76.58,31.73 C76.6866672,31.8300005 76.74,31.946666 76.74,32.08 C76.74,32.5333356 76.5600018,33.0199974 76.2,33.54 C75.8399982,34.0600026 75.3200034,34.4999982 74.64,34.86 C73.9599966,35.2200018 73.1600046,35.4 72.24,35.4 C71.2933286,35.4 70.4733368,35.200002 69.78,34.8 C69.0866632,34.399998 68.5533352,33.8500035 68.18,33.15 C67.8066648,32.4499965 67.6000002,31.666671 67.56,30.8 C67.5466666,30.6399992 67.54,30.3333356 67.54,29.88 C67.54,29.5599984 67.5466666,29.333334 67.56,29.2 C67.6800006,27.8399932 68.139996,26.7333376 68.94,25.88 C69.740004,25.0266624 70.839993,24.6 72.24,24.6 C73.1600046,24.6 73.9566633,24.7766649 74.63,25.13 C75.3033367,25.4833351 75.8166649,25.9166641 76.17,26.43 C76.5233351,26.9433359 76.7133332,27.4266644 76.74,27.88 C76.7533334,28.0266674 76.7033339,28.1533328 76.59,28.26 C76.4766661,28.3666672 76.3466674,28.42 76.2,28.42 L75.6,28.42 C75.4399992,28.42 75.3133338,28.3800004 75.22,28.3 C75.1266662,28.2199996 75.0333338,28.080001 74.94,27.88 C74.473331,26.8399948 73.57334,26.32 72.24,26.32 C71.506663,26.32 70.8666694,26.5666642 70.32,27.06 C69.7733306,27.5533358 69.4600004,28.299995 69.38,29.3 C69.3666666,29.4466674 69.36,29.686665 69.36,30.02 C69.36,30.3266682 69.3666666,30.5533326 69.38,30.7 C69.4733338,31.700005 69.7899973,32.4466642 70.33,32.94 C70.8700027,33.4333358 71.506663,33.68 72.24,33.68 Z M80.96,34.66 C80.96,34.8066674 80.9066672,34.9333328 80.8,35.04 C80.6933328,35.1466672 80.5666674,35.2 80.42,35.2 L79.68,35.2 C79.5333326,35.2 79.4066672,35.1466672 79.3,35.04 C79.1933328,34.9333328 79.14,34.8066674 79.14,34.66 L79.14,21.54 C79.14,21.3933326 79.1933328,21.2666672 79.3,21.16 C79.4066672,21.0533328 79.5333326,21 79.68,21 L80.42,21 C80.5666674,21 80.6933328,21.0533328 80.8,21.16 C80.9066672,21.2666672 80.96,21.3933326 80.96,21.54 L80.96,28.16 L84.86,25.14 C85.0066674,25.0333328 85.1333328,24.9500003 85.24,24.89 C85.3466672,24.8299997 85.4799992,24.8 85.64,24.8 L86.64,24.8 C86.773334,24.8 86.8866662,24.8466662 86.98,24.94 C87.0733338,25.0333338 87.12,25.146666 87.12,25.28 C87.12,25.4266674 87.0466674,25.5599994 86.9,25.68 L82.08,29.44 L87.4,34.34 C87.533334,34.473334 87.6,34.5999994 87.6,34.72 C87.6,34.853334 87.5533338,34.9666662 87.46,35.06 C87.3666662,35.1533338 87.253334,35.2 87.12,35.2 L86.18,35.2 C85.8999986,35.2 85.626668,35.0866678 85.36,34.86 L80.96,30.8 L80.96,34.66 Z" id="Back" fill="#000000"></path>
            </g>
        </g>
    </g>
</svg>