<svg id="g10" xmlns="http://www.w3.org/2000/svg" xmlns:xlink="http://www.w3.org/1999/xlink" width="183.826" height="43.769" viewBox="0 0 183.826 43.769">
  <defs>
    <clipPath id="clip-path">
      <path id="path34" d="M4.654-50.471H188.48V-94.24H4.654Z" transform="translate(-4.654 94.24)"/>
    </clipPath>
  </defs>
  <g id="g30">
    <g id="g32" clip-path="url(#clip-path)">
      <path id="path38" d="M-546.963-56.581a38.524,38.524,0,0,1-7.12-.613,18.84,18.84,0,0,1-5.711-1.9l2.1-9.815a24.083,24.083,0,0,0,5.825,2.192,23.677,23.677,0,0,0,5.661.737,13.821,13.821,0,0,0,4.456-.521,2.369,2.369,0,0,0,1.553-1.851,2.009,2.009,0,0,0,.048-.487,1.457,1.457,0,0,0-.21-.789,1.765,1.765,0,0,0-.668-.594,31.758,31.758,0,0,0-4.215-1.671l-1.745-.579a16.048,16.048,0,0,1-6.221-3.539,7.422,7.422,0,0,1-2.063-5.406,12.116,12.116,0,0,1,.3-2.807,13.129,13.129,0,0,1,5.749-8.661c2.952-1.9,7.159-2.867,12.634-2.867a40.26,40.26,0,0,1,6.179.5,28.277,28.277,0,0,1,5.562,1.333l-2.1,9.888a23.135,23.135,0,0,0-9.756-2.2,18.107,18.107,0,0,0-4.605.446,2.507,2.507,0,0,0-1.134.623,2.156,2.156,0,0,0-.56,1.075c-.048.661.01.87.132,1.051a1.556,1.556,0,0,0,.6.492,28.762,28.762,0,0,0,4.011,1.413l1.158.346c3.34.99,5.7,2.24,7.115,3.723a7.792,7.792,0,0,1,2.175,5.575,17.752,17.752,0,0,1-.415,3.321,13.367,13.367,0,0,1-5.6,8.6c-2.893,1.979-7.267,2.989-13.137,2.989Zm31.694,0c-2.952,0-5.184-.695-6.717-2.04a7.28,7.28,0,0,1-2.348-5.775,13.726,13.726,0,0,1,.357-2.976L-522-76.487h-3.589l1.861-8.881h3.6l1.2-5.525,12.341-2.807-1.768,8.332h6.341l-2.31,8.881h-5.9l-1.84,8.494a5.365,5.365,0,0,0-.163,1.173,1.693,1.693,0,0,0,.138.737.864.864,0,0,0,.365.388,4.5,4.5,0,0,0,2.078.349,12.691,12.691,0,0,0,4.174-.789l-1.772,8.171a21.463,21.463,0,0,1-8.022,1.384ZM-489.8-75.05-493.6-57.158h-11.777l5.977-28.21h11.306l-.151,1.9a28.049,28.049,0,0,1,4.172-1.513,26.073,26.073,0,0,1,6.015-1l-1.861,8.946a41.017,41.017,0,0,0-5.573.764A24.288,24.288,0,0,0-489.8-75.05Zm9.515,3.7q1.543-7.271,6.3-10.925c3.154-2.434,7.544-3.668,13.186-3.668,4.528,0,7.973.978,10.354,2.894a9.882,9.882,0,0,1,3.637,8.153,16.8,16.8,0,0,1-.415,3.724q-1.544,7.3-6.481,10.945-4.905,3.634-13.179,3.648c-4.408,0-7.795-.947-10.175-2.8-2.418-1.886-3.642-4.609-3.642-8.186A17.582,17.582,0,0,1-480.289-71.351Zm11.971.178a14.9,14.9,0,0,0-.338,2.854,2.933,2.933,0,0,0,.756,2.277,4.026,4.026,0,0,0,2.694.7,5.339,5.339,0,0,0,3.9-1.377,8.916,8.916,0,0,0,2.11-4.627,12.484,12.484,0,0,0,.339-2.682,3.025,3.025,0,0,0-.839-2.389,4.162,4.162,0,0,0-2.785-.758,5,5,0,0,0-3.774,1.4,9.352,9.352,0,0,0-2.061,4.608Zm21.293,14.016,8.469-39.749h11.777l-2.6,12.207a15.564,15.564,0,0,1,2.789-.831,19.726,19.726,0,0,1,3.969-.413c3.483,0,6.2.823,8.155,2.435,1.98,1.629,3,4.144,3,7.573A21.669,21.669,0,0,1-412-71.4q-1.569,7.4-5.65,11.091a15.3,15.3,0,0,1-10.707,3.733,13.21,13.21,0,0,1-4.613-.72,10.475,10.475,0,0,1-2.989-1.712l-.805,1.855Zm13.749-9.493a4.473,4.473,0,0,0,3.472,1.363,4.829,4.829,0,0,0,3.684-1.394,10.085,10.085,0,0,0,2.094-4.787,13.689,13.689,0,0,0,.338-2.678,2.99,2.99,0,0,0-.809-2.36,3.841,3.841,0,0,0-2.583-.73,7.135,7.135,0,0,0-4.19,1.265Zm23.271-4.643a18.722,18.722,0,0,1,6.024-10.8c3.024-2.559,7.083-3.853,12.187-3.853,3.832,0,6.837.949,9.03,2.815a9.407,9.407,0,0,1,3.338,7.539,12.375,12.375,0,0,1-.3,2.861l-1.117,5.128H-399.79a3.258,3.258,0,0,0,.384,1.233,2.767,2.767,0,0,0,1.126,1.074c1.1.6,3.134.871,6.081.871a29.091,29.091,0,0,0,4.71-.4,18.974,18.974,0,0,0,4.807-1.329l-1.608,7.539q-4.5,2.022-12.081,2.03c-4.324,0-7.728-.942-10.224-2.8a9.643,9.643,0,0,1-3.824-8.25A16.54,16.54,0,0,1-410.005-71.294Zm20.34-3.053.111-.625a6.49,6.49,0,0,0,.109-.906,1.911,1.911,0,0,0-.787-1.682,4.69,4.69,0,0,0-2.663-.6,6.026,6.026,0,0,0-3.87,1.057,5.273,5.273,0,0,0-1.661,2.756Z" transform="translate(193.871 95.186)" fill="#fff" fill-rule="evenodd"/>
    </g>
  </g>
  <g id="g84">
    <g id="g86" clip-path="url(#clip-path)">
      <path id="path92" d="M-546.963-56.581a38.524,38.524,0,0,1-7.12-.613,18.84,18.84,0,0,1-5.711-1.9l2.1-9.815a24.083,24.083,0,0,0,5.825,2.192,23.677,23.677,0,0,0,5.661.737,13.821,13.821,0,0,0,4.456-.521,2.369,2.369,0,0,0,1.553-1.851,2.009,2.009,0,0,0,.048-.487,1.457,1.457,0,0,0-.21-.789,1.765,1.765,0,0,0-.668-.594,31.758,31.758,0,0,0-4.215-1.671l-1.745-.579a16.048,16.048,0,0,1-6.221-3.539,7.422,7.422,0,0,1-2.063-5.406,12.116,12.116,0,0,1,.3-2.807,13.129,13.129,0,0,1,5.749-8.661c2.952-1.9,7.159-2.867,12.634-2.867a40.26,40.26,0,0,1,6.179.5,28.277,28.277,0,0,1,5.562,1.333l-2.1,9.888a23.135,23.135,0,0,0-9.756-2.2,18.107,18.107,0,0,0-4.605.446,2.507,2.507,0,0,0-1.134.623,2.156,2.156,0,0,0-.56,1.075c-.048.661.01.87.132,1.051a1.556,1.556,0,0,0,.6.492,28.762,28.762,0,0,0,4.011,1.413l1.158.346c3.34.99,5.7,2.24,7.115,3.723a7.792,7.792,0,0,1,2.175,5.575,17.752,17.752,0,0,1-.415,3.321,13.367,13.367,0,0,1-5.6,8.6c-2.893,1.979-7.267,2.989-13.137,2.989Zm31.694,0c-2.952,0-5.184-.695-6.717-2.04a7.28,7.28,0,0,1-2.348-5.775,13.726,13.726,0,0,1,.357-2.976L-522-76.487h-3.589l1.861-8.881h3.6l1.2-5.525,12.341-2.807-1.768,8.332h6.341l-2.31,8.881h-5.9l-1.84,8.494a5.365,5.365,0,0,0-.163,1.173,1.693,1.693,0,0,0,.138.737.864.864,0,0,0,.365.388,4.5,4.5,0,0,0,2.078.349,12.691,12.691,0,0,0,4.174-.789l-1.772,8.171a21.463,21.463,0,0,1-8.022,1.384ZM-489.8-75.05-493.6-57.158h-11.777l5.977-28.21h11.306l-.151,1.9a28.049,28.049,0,0,1,4.172-1.513,26.073,26.073,0,0,1,6.015-1l-1.861,8.946a41.017,41.017,0,0,0-5.573.764A24.288,24.288,0,0,0-489.8-75.05Zm9.515,3.7q1.543-7.271,6.3-10.925c3.154-2.434,7.544-3.668,13.186-3.668,4.528,0,7.973.978,10.354,2.894a9.882,9.882,0,0,1,3.637,8.153,16.8,16.8,0,0,1-.415,3.724q-1.544,7.3-6.481,10.945-4.905,3.634-13.179,3.648c-4.408,0-7.795-.947-10.175-2.8-2.418-1.886-3.642-4.609-3.642-8.186A17.582,17.582,0,0,1-480.289-71.351Zm11.971.178a14.9,14.9,0,0,0-.338,2.854,2.933,2.933,0,0,0,.756,2.277,4.026,4.026,0,0,0,2.694.7,5.339,5.339,0,0,0,3.9-1.377,8.916,8.916,0,0,0,2.11-4.627,12.484,12.484,0,0,0,.339-2.682,3.025,3.025,0,0,0-.839-2.389,4.162,4.162,0,0,0-2.785-.758,5,5,0,0,0-3.774,1.4,9.352,9.352,0,0,0-2.061,4.608Zm21.293,14.016,8.469-39.749h11.777l-2.6,12.207a15.564,15.564,0,0,1,2.789-.831,19.726,19.726,0,0,1,3.969-.413c3.483,0,6.2.823,8.155,2.435,1.98,1.629,3,4.144,3,7.573A21.669,21.669,0,0,1-412-71.4q-1.569,7.4-5.65,11.091a15.3,15.3,0,0,1-10.707,3.733,13.21,13.21,0,0,1-4.613-.72,10.475,10.475,0,0,1-2.989-1.712l-.805,1.855Zm13.749-9.493a4.473,4.473,0,0,0,3.472,1.363,4.829,4.829,0,0,0,3.684-1.394,10.085,10.085,0,0,0,2.094-4.787,13.689,13.689,0,0,0,.338-2.678,2.99,2.99,0,0,0-.809-2.36,3.841,3.841,0,0,0-2.583-.73,7.135,7.135,0,0,0-4.19,1.265Zm23.271-4.643a18.722,18.722,0,0,1,6.024-10.8c3.024-2.559,7.083-3.853,12.187-3.853,3.832,0,6.837.949,9.03,2.815a9.407,9.407,0,0,1,3.338,7.539,12.375,12.375,0,0,1-.3,2.861l-1.117,5.128H-399.79a3.258,3.258,0,0,0,.384,1.233,2.767,2.767,0,0,0,1.126,1.074c1.1.6,3.134.871,6.081.871a29.091,29.091,0,0,0,4.71-.4,18.974,18.974,0,0,0,4.807-1.329l-1.608,7.539q-4.5,2.022-12.081,2.03c-4.324,0-7.728-.942-10.224-2.8a9.643,9.643,0,0,1-3.824-8.25A16.54,16.54,0,0,1-410.005-71.294Zm20.34-3.053.111-.625a6.49,6.49,0,0,0,.109-.906,1.911,1.911,0,0,0-.787-1.682,4.69,4.69,0,0,0-2.663-.6,6.026,6.026,0,0,0-3.87,1.057,5.273,5.273,0,0,0-1.661,2.756Z" transform="translate(193.871 95.186)" fill="#fff" fill-rule="evenodd"/>
    </g>
  </g>
</svg>
