<?xml version="1.0" encoding="UTF-8"?>
<svg width="133px" height="57px" viewBox="0 0 133 57" version="1.1" xmlns="http://www.w3.org/2000/svg" xmlns:xlink="http://www.w3.org/1999/xlink">
    <!-- Generator: Sketch 52.5 (67469) - http://www.bohemiancoding.com/sketch -->
    <title>Log Out</title>
    <desc>Created with Sketch.</desc>
    <defs>
        <linearGradient x1="-4.96345833%" y1="41.1993066%" x2="102.000596%" y2="41.1993066%" id="linearGradient-1">
            <stop stop-color="#00EBCF" offset="0%"></stop>
            <stop stop-color="#9E8AF8" offset="100%"></stop>
        </linearGradient>
    </defs>
    <g id="iPhone-XS" stroke="none" stroke-width="1" fill="none" fill-rule="evenodd">
        <g id="Page-2" transform="translate(-669.000000, -195.000000)">
            <g id="Log-Out" transform="translate(735.500000, 223.500000) scale(-1, 1) translate(-735.500000, -223.500000) translate(669.000000, 195.000000)">
                <g id="Group-2">
                    <path d="M7.81863079,19.4762944 C17.322226,8.719834 36.6690157,3.10010615e-13 51.0210724,2.46088975e-13 L106.274394,-2.5243549e-29 C120.630848,-6.39412268e-14 132.269054,11.6352887 132.269054,25.9984002 L132.269054,30.8206365 C132.269054,45.1791564 120.62645,56.8190367 106.274394,56.8190367 L51.0210724,56.8190367 C36.664618,56.8190367 17.1551336,48.2402805 7.5425373,37.5740325 C7.5425373,37.5740325 -0.518285192,29.2058138 0.0264121825,28.4095183 C0.571109557,27.6132228 7.81863079,19.4762944 7.81863079,19.4762944 Z" id="Rectangle-9" fill="url(#linearGradient-1)"></path>
                    <path d="M54.2,35.2 C54.0266658,35.2 53.8800006,35.1466672 53.76,35.04 C53.6399994,34.9333328 53.5200006,34.7866676 53.4,34.6 L46.9,24.82 L46.9,34.66 C46.9,34.8066674 46.8466672,34.9333328 46.74,35.04 C46.6333328,35.1466672 46.5066674,35.2 46.36,35.2 L45.54,35.2 C45.3933326,35.2 45.2666672,35.1466672 45.16,35.04 C45.0533328,34.9333328 45,34.8066674 45,34.66 L45,21.74 C45,21.5933326 45.0533328,21.4666672 45.16,21.36 C45.2666672,21.2533328 45.3933326,21.2 45.54,21.2 L46.24,21.2 C46.4133342,21.2 46.5599994,21.2533328 46.68,21.36 C46.8000006,21.4666672 46.9199994,21.6133324 47.04,21.8 L53.54,31.58 L53.54,21.74 C53.54,21.5933326 53.5933328,21.4666672 53.7,21.36 C53.8066672,21.2533328 53.9333326,21.2 54.08,21.2 L54.9,21.2 C55.0466674,21.2 55.1733328,21.2533328 55.28,21.36 C55.3866672,21.4666672 55.44,21.5933326 55.44,21.74 L55.44,34.66 C55.44,34.8066674 55.3866672,34.9333328 55.28,35.04 C55.1733328,35.1466672 55.0466674,35.2 54.9,35.2 L54.2,35.2 Z M62.76,24.6 C64.1866738,24.6 65.3133292,25.0533288 66.14,25.96 C66.9666708,26.8666712 67.38,28.0999922 67.38,29.66 L67.38,30.2 C67.38,30.3466674 67.3266672,30.4733328 67.22,30.58 C67.1133328,30.6866672 66.9866674,30.74 66.84,30.74 L59.96,30.74 L59.96,30.86 C59.9866668,31.7400044 60.2566641,32.4299975 60.77,32.93 C61.2833359,33.4300025 61.9466626,33.68 62.76,33.68 C63.42667,33.68 63.9433315,33.5933342 64.31,33.42 C64.6766685,33.2466658 65.0066652,33.0000016 65.3,32.68 C65.4066672,32.5733328 65.5033329,32.5000002 65.59,32.46 C65.6766671,32.4199998 65.7933326,32.4 65.94,32.4 L66.54,32.4 C66.7000008,32.4 66.8333328,32.4533328 66.94,32.56 C67.0466672,32.6666672 67.0933334,32.7933326 67.08,32.94 C67.0266664,33.3000018 66.8300017,33.6699981 66.49,34.05 C66.1499983,34.4300019 65.6633365,34.7499987 65.03,35.01 C64.3966635,35.2700013 63.6400044,35.4 62.76,35.4 C61.9066624,35.4 61.14667,35.2033353 60.48,34.81 C59.81333,34.4166647 59.2833353,33.8733368 58.89,33.18 C58.4966647,32.4866632 58.2600004,31.706671 58.18,30.84 C58.1533332,30.439998 58.14,30.1333344 58.14,29.92 C58.14,29.7066656 58.1533332,29.400002 58.18,29 C58.2600004,28.1733292 58.4966647,27.42667 58.89,26.76 C59.2833353,26.09333 59.8099967,25.5666686 60.47,25.18 C61.1300033,24.7933314 61.893329,24.6 62.76,24.6 Z M65.58,29.06 L65.58,29 C65.58,28.1866626 65.3233359,27.5366691 64.81,27.05 C64.2966641,26.5633309 63.6133376,26.32 62.76,26.32 C61.9866628,26.32 61.3300027,26.5666642 60.79,27.06 C60.2499973,27.5533358 59.9733334,28.199996 59.96,29 L59.96,29.06 L65.58,29.06 Z M70.92,34.82 C70.8266662,34.9266672 70.7333338,35.0166663 70.64,35.09 C70.5466662,35.1633337 70.4266674,35.2 70.28,35.2 L69.36,35.2 C69.226666,35.2 69.1133338,35.1533338 69.02,35.06 C68.9266662,34.9666662 68.88,34.8600006 68.88,34.74 C68.88,34.6333328 68.9066664,34.5400004 68.96,34.46 L72.62,29.88 L69.16,25.54 C69.1066664,25.4599996 69.08,25.3666672 69.08,25.26 C69.08,25.1399994 69.1266662,25.0333338 69.22,24.94 C69.3133338,24.8466662 69.426666,24.8 69.56,24.8 L70.52,24.8 C70.6666674,24.8 70.7866662,24.8366663 70.88,24.91 C70.9733338,24.9833337 71.0666662,25.0733328 71.16,25.18 L73.82,28.52 L76.46,25.18 C76.5533338,25.0733328 76.6466662,24.9833337 76.74,24.91 C76.8333338,24.8366663 76.9533326,24.8 77.1,24.8 L78.02,24.8 C78.153334,24.8 78.2666662,24.8466662 78.36,24.94 C78.4533338,25.0333338 78.5,25.1399994 78.5,25.26 C78.5,25.3666672 78.4733336,25.4599996 78.42,25.54 L74.94,29.92 L78.56,34.46 C78.6133336,34.5400004 78.64,34.6333328 78.64,34.74 C78.64,34.8600006 78.5933338,34.9666662 78.5,35.06 C78.4066662,35.1533338 78.293334,35.2 78.16,35.2 L77.2,35.2 C77.0533326,35.2 76.9333338,35.1633337 76.84,35.09 C76.7466662,35.0166663 76.6533338,34.9266672 76.56,34.82 L73.74,31.28 L70.92,34.82 Z M83.48,31.7 C83.48,32.2733362 83.5966655,32.7133318 83.83,33.02 C84.0633345,33.3266682 84.5066634,33.48 85.16,33.48 L86.22,33.48 C86.3666674,33.48 86.4933328,33.5333328 86.6,33.64 C86.7066672,33.7466672 86.76,33.8733326 86.76,34.02 L86.76,34.66 C86.76,34.8066674 86.7066672,34.9333328 86.6,35.04 C86.4933328,35.1466672 86.3666674,35.2 86.22,35.2 L84.96,35.2 C83.826661,35.2 82.993336,34.9033363 82.46,34.31 C81.926664,33.7166637 81.66,32.8466724 81.66,31.7 L81.66,26.52 L80.18,26.52 C80.0333326,26.52 79.9066672,26.4666672 79.8,26.36 C79.6933328,26.2533328 79.64,26.1266674 79.64,25.98 L79.64,25.34 C79.64,25.1933326 79.6933328,25.0666672 79.8,24.96 C79.9066672,24.8533328 80.0333326,24.8 80.18,24.8 L81.66,24.8 L81.66,21.54 C81.66,21.3933326 81.7133328,21.2666672 81.82,21.16 C81.9266672,21.0533328 82.0533326,21 82.2,21 L82.94,21 C83.0866674,21 83.2133328,21.0533328 83.32,21.16 C83.4266672,21.2666672 83.48,21.3933326 83.48,21.54 L83.48,24.8 L86.02,24.8 C86.1666674,24.8 86.2933328,24.8533328 86.4,24.96 C86.5066672,25.0666672 86.56,25.1933326 86.56,25.34 L86.56,25.98 C86.56,26.1266674 86.5066672,26.2533328 86.4,26.36 C86.2933328,26.4666672 86.1666674,26.52 86.02,26.52 L83.48,26.52 L83.48,31.7 Z" id="Next" fill="#000000" transform="translate(65.880000, 28.200000) scale(-1, 1) translate(-65.880000, -28.200000) "></path>
                </g>
            </g>
        </g>
    </g>
</svg>